# xmcd
#
# Track frame offsets:
#	182
#	28495
#	61687
#	74987
#	93140
#	115765
#	136840
#	152312
#	174540
#
# Disc length: 2493 seconds
#
# Revision: 0
# Processed by: cddbd v1.5PL3 Copyright (c) Steve Scherf et al.
# Submitted via: dBpowerAMP V4.0
#
DISCID=7309bb09
DTITLE=ÉRIC TRITON - BLUES DAN MWA
DYEAR=1999
DGENRE=Blues
TTITLE0=Blues Dan Mwa
TTITLE1=Aio Aio
TTITLE2=Armstrong
TTITLE3=La Musique Est Mon Dieu
TTITLE4=Dan Koin l'Église
TTITLE5=Robin
TTITLE6=Sauver Le Blues
TTITLE7=L'Unité
TTITLE8=Sweet Spleen Swing
EXTD=
EXTT0=
EXTT1=
EXTT2=
EXTT3=
EXTT4=
EXTT5=
EXTT6=
EXTT7=
EXTT8=
PLAYORDER=
